<svg width="159" height="51" viewBox="0 0 159 51" fill="none" xmlns="http://www.w3.org/2000/svg">
<mask id="path-1-outside-1_579_525" maskUnits="userSpaceOnUse" x="4" y="7" width="152" height="34" fill="black">
<rect fill="white" x="4" y="7" width="152" height="34"/>
<path d="M24.8906 20.2266C24.7734 18.8724 24.2721 17.7982 23.3867 17.0039C22.5143 16.2096 21.3359 15.8125 19.8516 15.8125C18.5625 15.8125 17.4557 16.1315 16.5312 16.7695C15.6198 17.4076 14.9232 18.332 14.4414 19.543C13.9596 20.7409 13.7188 22.1797 13.7188 23.8594C13.7188 26.4896 14.2461 28.4883 15.3008 29.8555C16.3685 31.2227 17.8724 31.9062 19.8125 31.9062C21.2188 31.9062 22.3646 31.5482 23.25 30.832C24.1484 30.1029 24.6953 29.1068 24.8906 27.8438L32.4297 27.9219C32.2865 29.6276 31.7005 31.2878 30.6719 32.9023C29.6562 34.5039 28.2044 35.819 26.3164 36.8477C24.4414 37.8763 22.2214 38.3906 19.6562 38.3906C17.0391 38.3906 14.7018 37.8242 12.6445 36.6914C10.5872 35.5586 8.97266 33.8984 7.80078 31.7109C6.64193 29.5234 6.0625 26.9062 6.0625 23.8594C6.0625 20.8125 6.65495 18.1953 7.83984 16.0078C9.02474 13.8203 10.6458 12.1602 12.7031 11.0273C14.7604 9.89453 17.0781 9.32812 19.6562 9.32812C22.013 9.32812 24.1159 9.75781 25.9648 10.6172C27.8138 11.4635 29.2982 12.707 30.418 14.3477C31.5508 15.9883 32.2214 17.9479 32.4297 20.2266H24.8906ZM46.2188 38.3906C43.9792 38.3906 42.0326 37.9349 40.3789 37.0234C38.7383 36.112 37.4753 34.8359 36.5898 33.1953C35.7174 31.5417 35.2812 29.6276 35.2812 27.4531C35.2812 25.2786 35.7174 23.3711 36.5898 21.7305C37.4753 20.0768 38.7383 18.7943 40.3789 17.8828C42.0326 16.9714 43.9792 16.5156 46.2188 16.5156C48.4583 16.5156 50.3984 16.9714 52.0391 17.8828C53.6797 18.7943 54.9362 20.0768 55.8086 21.7305C56.681 23.3711 57.1172 25.2786 57.1172 27.4531C57.1172 29.6276 56.681 31.5417 55.8086 33.1953C54.9362 34.8359 53.6797 36.112 52.0391 37.0234C50.3984 37.9349 48.4583 38.3906 46.2188 38.3906ZM46.2578 32.9219C47.2865 32.9219 48.0938 32.4271 48.6797 31.4375C49.2786 30.4479 49.5781 29.1068 49.5781 27.4141C49.5781 25.7083 49.2786 24.3672 48.6797 23.3906C48.0938 22.401 47.2865 21.9062 46.2578 21.9062C45.1901 21.9062 44.3503 22.401 43.7383 23.3906C43.1263 24.3672 42.8203 25.7083 42.8203 27.4141C42.8203 29.1068 43.1263 30.4479 43.7383 31.4375C44.3503 32.4271 45.1901 32.9219 46.2578 32.9219ZM68.0156 38.2734C66.4531 38.2734 65.0339 37.8698 63.7578 37.0625C62.4948 36.2422 61.4857 35.0182 60.7305 33.3906C59.9883 31.75 59.6172 29.7578 59.6172 27.4141C59.6172 24.9792 60.0013 22.9479 60.7695 21.3203C61.5378 19.6797 62.5534 18.4688 63.8164 17.6875C65.0794 16.9062 66.4531 16.5156 67.9375 16.5156C69.4479 16.5156 70.7109 16.8867 71.7266 17.6289C72.7422 18.3711 73.4714 19.3151 73.9141 20.4609H74.0312V9.71875H81.4141V38H74.1094V34.5234H73.9141C73.4583 35.6432 72.7227 36.5482 71.707 37.2383C70.7044 37.9284 69.474 38.2734 68.0156 38.2734ZM70.6719 32.6094C71.7786 32.6094 72.6445 32.1406 73.2695 31.2031C73.9076 30.2656 74.2266 28.9896 74.2266 27.375C74.2266 25.7734 73.9076 24.5169 73.2695 23.6055C72.6445 22.681 71.7786 22.2188 70.6719 22.2188C69.5781 22.2188 68.7318 22.6745 68.1328 23.5859C67.5339 24.4974 67.2344 25.7604 67.2344 27.375C67.2344 29.0026 67.5339 30.2852 68.1328 31.2227C68.7448 32.1471 69.5911 32.6094 70.6719 32.6094ZM95.3984 38.3906C93.1589 38.3906 91.2188 37.9544 89.5781 37.082C87.9505 36.2096 86.694 34.9531 85.8086 33.3125C84.9362 31.6719 84.5 29.7188 84.5 27.4531C84.5 25.2786 84.9362 23.3646 85.8086 21.7109C86.694 20.0573 87.944 18.7812 89.5586 17.8828C91.1862 16.9714 93.0807 16.5156 95.2422 16.5156C97.3385 16.5156 99.1745 16.9518 100.75 17.8242C102.326 18.6836 103.543 19.9336 104.402 21.5742C105.275 23.2018 105.711 25.1354 105.711 27.375V29.1328H91.8047V29.4062C91.8047 30.513 92.1367 31.418 92.8008 32.1211C93.4779 32.8112 94.3958 33.1562 95.5547 33.1562C96.362 33.1562 97.0651 32.987 97.6641 32.6484C98.263 32.3099 98.6797 31.8411 98.9141 31.2422H105.672C105.424 32.7005 104.852 33.9701 103.953 35.0508C103.068 36.1185 101.896 36.9453 100.438 37.5312C98.9792 38.1042 97.2995 38.3906 95.3984 38.3906ZM98.875 24.9922C98.862 24.3672 98.6992 23.8073 98.3867 23.3125C98.0872 22.8177 97.6771 22.4336 97.1562 22.1602C96.6354 21.8867 96.0495 21.75 95.3984 21.75C94.7474 21.75 94.1484 21.8932 93.6016 22.1797C93.0677 22.4531 92.638 22.8372 92.3125 23.332C91.987 23.8138 91.8177 24.3672 91.8047 24.9922H98.875ZM122.586 16.7891H129.969V38H122.977V33.9766H122.742C122.273 35.3307 121.46 36.3854 120.301 37.1406C119.155 37.8958 117.794 38.2734 116.219 38.2734C114.773 38.2734 113.491 37.9349 112.371 37.2578C111.264 36.5807 110.405 35.6432 109.793 34.4453C109.181 33.2344 108.875 31.8542 108.875 30.3047V16.7891H116.258V28.7812C116.258 29.862 116.531 30.7148 117.078 31.3398C117.625 31.9518 118.393 32.2578 119.383 32.2578C120.359 32.2578 121.141 31.9453 121.727 31.3203C122.312 30.6953 122.599 29.8359 122.586 28.7422V16.7891ZM146.297 23.625C146.219 22.974 145.9 22.4531 145.34 22.0625C144.793 21.6719 144.122 21.4766 143.328 21.4766C142.599 21.4766 141.993 21.6133 141.512 21.8867C141.043 22.1471 140.815 22.5052 140.828 22.9609C140.789 23.7292 141.505 24.25 142.977 24.5234L147.195 25.3047C149.37 25.6953 150.984 26.3594 152.039 27.2969C153.094 28.2344 153.628 29.4844 153.641 31.0469C153.628 32.5182 153.185 33.8073 152.312 34.9141C151.44 36.0208 150.242 36.8802 148.719 37.4922C147.195 38.0911 145.464 38.3906 143.523 38.3906C141.427 38.3906 139.611 38.0977 138.074 37.5117C136.551 36.9258 135.353 36.099 134.48 35.0312C133.621 33.9505 133.12 32.6875 132.977 31.2422H140.32C140.438 31.9193 140.783 32.4466 141.355 32.8242C141.928 33.2018 142.664 33.3906 143.562 33.3906C144.318 33.3906 144.93 33.2604 145.398 33C145.88 32.7266 146.128 32.362 146.141 31.9062C146.128 31.4766 145.919 31.138 145.516 30.8906C145.125 30.6302 144.5 30.4219 143.641 30.2656L139.93 29.6016C137.794 29.2109 136.186 28.4948 135.105 27.4531C134.025 26.3984 133.484 25.0443 133.484 23.3906C133.484 21.9453 133.875 20.7083 134.656 19.6797C135.438 18.651 136.551 17.8698 137.996 17.3359C139.454 16.7891 141.18 16.5156 143.172 16.5156C145.164 16.5156 146.889 16.8021 148.348 17.375C149.819 17.9349 150.958 18.7487 151.766 19.8164C152.586 20.8841 153.029 22.1536 153.094 23.625H146.297Z"/>
</mask>
<path d="M24.8906 20.2266C24.7734 18.8724 24.2721 17.7982 23.3867 17.0039C22.5143 16.2096 21.3359 15.8125 19.8516 15.8125C18.5625 15.8125 17.4557 16.1315 16.5312 16.7695C15.6198 17.4076 14.9232 18.332 14.4414 19.543C13.9596 20.7409 13.7188 22.1797 13.7188 23.8594C13.7188 26.4896 14.2461 28.4883 15.3008 29.8555C16.3685 31.2227 17.8724 31.9062 19.8125 31.9062C21.2188 31.9062 22.3646 31.5482 23.25 30.832C24.1484 30.1029 24.6953 29.1068 24.8906 27.8438L32.4297 27.9219C32.2865 29.6276 31.7005 31.2878 30.6719 32.9023C29.6562 34.5039 28.2044 35.819 26.3164 36.8477C24.4414 37.8763 22.2214 38.3906 19.6562 38.3906C17.0391 38.3906 14.7018 37.8242 12.6445 36.6914C10.5872 35.5586 8.97266 33.8984 7.80078 31.7109C6.64193 29.5234 6.0625 26.9062 6.0625 23.8594C6.0625 20.8125 6.65495 18.1953 7.83984 16.0078C9.02474 13.8203 10.6458 12.1602 12.7031 11.0273C14.7604 9.89453 17.0781 9.32812 19.6562 9.32812C22.013 9.32812 24.1159 9.75781 25.9648 10.6172C27.8138 11.4635 29.2982 12.707 30.418 14.3477C31.5508 15.9883 32.2214 17.9479 32.4297 20.2266H24.8906ZM46.2188 38.3906C43.9792 38.3906 42.0326 37.9349 40.3789 37.0234C38.7383 36.112 37.4753 34.8359 36.5898 33.1953C35.7174 31.5417 35.2812 29.6276 35.2812 27.4531C35.2812 25.2786 35.7174 23.3711 36.5898 21.7305C37.4753 20.0768 38.7383 18.7943 40.3789 17.8828C42.0326 16.9714 43.9792 16.5156 46.2188 16.5156C48.4583 16.5156 50.3984 16.9714 52.0391 17.8828C53.6797 18.7943 54.9362 20.0768 55.8086 21.7305C56.681 23.3711 57.1172 25.2786 57.1172 27.4531C57.1172 29.6276 56.681 31.5417 55.8086 33.1953C54.9362 34.8359 53.6797 36.112 52.0391 37.0234C50.3984 37.9349 48.4583 38.3906 46.2188 38.3906ZM46.2578 32.9219C47.2865 32.9219 48.0938 32.4271 48.6797 31.4375C49.2786 30.4479 49.5781 29.1068 49.5781 27.4141C49.5781 25.7083 49.2786 24.3672 48.6797 23.3906C48.0938 22.401 47.2865 21.9062 46.2578 21.9062C45.1901 21.9062 44.3503 22.401 43.7383 23.3906C43.1263 24.3672 42.8203 25.7083 42.8203 27.4141C42.8203 29.1068 43.1263 30.4479 43.7383 31.4375C44.3503 32.4271 45.1901 32.9219 46.2578 32.9219ZM68.0156 38.2734C66.4531 38.2734 65.0339 37.8698 63.7578 37.0625C62.4948 36.2422 61.4857 35.0182 60.7305 33.3906C59.9883 31.75 59.6172 29.7578 59.6172 27.4141C59.6172 24.9792 60.0013 22.9479 60.7695 21.3203C61.5378 19.6797 62.5534 18.4688 63.8164 17.6875C65.0794 16.9062 66.4531 16.5156 67.9375 16.5156C69.4479 16.5156 70.7109 16.8867 71.7266 17.6289C72.7422 18.3711 73.4714 19.3151 73.9141 20.4609H74.0312V9.71875H81.4141V38H74.1094V34.5234H73.9141C73.4583 35.6432 72.7227 36.5482 71.707 37.2383C70.7044 37.9284 69.474 38.2734 68.0156 38.2734ZM70.6719 32.6094C71.7786 32.6094 72.6445 32.1406 73.2695 31.2031C73.9076 30.2656 74.2266 28.9896 74.2266 27.375C74.2266 25.7734 73.9076 24.5169 73.2695 23.6055C72.6445 22.681 71.7786 22.2188 70.6719 22.2188C69.5781 22.2188 68.7318 22.6745 68.1328 23.5859C67.5339 24.4974 67.2344 25.7604 67.2344 27.375C67.2344 29.0026 67.5339 30.2852 68.1328 31.2227C68.7448 32.1471 69.5911 32.6094 70.6719 32.6094ZM95.3984 38.3906C93.1589 38.3906 91.2188 37.9544 89.5781 37.082C87.9505 36.2096 86.694 34.9531 85.8086 33.3125C84.9362 31.6719 84.5 29.7188 84.5 27.4531C84.5 25.2786 84.9362 23.3646 85.8086 21.7109C86.694 20.0573 87.944 18.7812 89.5586 17.8828C91.1862 16.9714 93.0807 16.5156 95.2422 16.5156C97.3385 16.5156 99.1745 16.9518 100.75 17.8242C102.326 18.6836 103.543 19.9336 104.402 21.5742C105.275 23.2018 105.711 25.1354 105.711 27.375V29.1328H91.8047V29.4062C91.8047 30.513 92.1367 31.418 92.8008 32.1211C93.4779 32.8112 94.3958 33.1562 95.5547 33.1562C96.362 33.1562 97.0651 32.987 97.6641 32.6484C98.263 32.3099 98.6797 31.8411 98.9141 31.2422H105.672C105.424 32.7005 104.852 33.9701 103.953 35.0508C103.068 36.1185 101.896 36.9453 100.438 37.5312C98.9792 38.1042 97.2995 38.3906 95.3984 38.3906ZM98.875 24.9922C98.862 24.3672 98.6992 23.8073 98.3867 23.3125C98.0872 22.8177 97.6771 22.4336 97.1562 22.1602C96.6354 21.8867 96.0495 21.75 95.3984 21.75C94.7474 21.75 94.1484 21.8932 93.6016 22.1797C93.0677 22.4531 92.638 22.8372 92.3125 23.332C91.987 23.8138 91.8177 24.3672 91.8047 24.9922H98.875ZM122.586 16.7891H129.969V38H122.977V33.9766H122.742C122.273 35.3307 121.46 36.3854 120.301 37.1406C119.155 37.8958 117.794 38.2734 116.219 38.2734C114.773 38.2734 113.491 37.9349 112.371 37.2578C111.264 36.5807 110.405 35.6432 109.793 34.4453C109.181 33.2344 108.875 31.8542 108.875 30.3047V16.7891H116.258V28.7812C116.258 29.862 116.531 30.7148 117.078 31.3398C117.625 31.9518 118.393 32.2578 119.383 32.2578C120.359 32.2578 121.141 31.9453 121.727 31.3203C122.312 30.6953 122.599 29.8359 122.586 28.7422V16.7891ZM146.297 23.625C146.219 22.974 145.9 22.4531 145.34 22.0625C144.793 21.6719 144.122 21.4766 143.328 21.4766C142.599 21.4766 141.993 21.6133 141.512 21.8867C141.043 22.1471 140.815 22.5052 140.828 22.9609C140.789 23.7292 141.505 24.25 142.977 24.5234L147.195 25.3047C149.37 25.6953 150.984 26.3594 152.039 27.2969C153.094 28.2344 153.628 29.4844 153.641 31.0469C153.628 32.5182 153.185 33.8073 152.312 34.9141C151.44 36.0208 150.242 36.8802 148.719 37.4922C147.195 38.0911 145.464 38.3906 143.523 38.3906C141.427 38.3906 139.611 38.0977 138.074 37.5117C136.551 36.9258 135.353 36.099 134.48 35.0312C133.621 33.9505 133.12 32.6875 132.977 31.2422H140.32C140.438 31.9193 140.783 32.4466 141.355 32.8242C141.928 33.2018 142.664 33.3906 143.562 33.3906C144.318 33.3906 144.93 33.2604 145.398 33C145.88 32.7266 146.128 32.362 146.141 31.9062C146.128 31.4766 145.919 31.138 145.516 30.8906C145.125 30.6302 144.5 30.4219 143.641 30.2656L139.93 29.6016C137.794 29.2109 136.186 28.4948 135.105 27.4531C134.025 26.3984 133.484 25.0443 133.484 23.3906C133.484 21.9453 133.875 20.7083 134.656 19.6797C135.438 18.651 136.551 17.8698 137.996 17.3359C139.454 16.7891 141.18 16.5156 143.172 16.5156C145.164 16.5156 146.889 16.8021 148.348 17.375C149.819 17.9349 150.958 18.7487 151.766 19.8164C152.586 20.8841 153.029 22.1536 153.094 23.625H146.297Z" fill="black"/>
<path d="M24.8906 20.2266L22.8981 20.399L23.0562 22.2266H24.8906V20.2266ZM23.3867 17.0039L22.0403 18.4828L22.0457 18.4877L22.0512 18.4927L23.3867 17.0039ZM16.5312 16.7695L15.3952 15.1234L15.3843 15.1311L16.5312 16.7695ZM14.4414 19.543L16.297 20.2892L16.2997 20.2823L14.4414 19.543ZM15.3008 29.8555L13.7172 31.0771L13.7245 31.0865L15.3008 29.8555ZM23.25 30.832L24.5077 32.3871L24.5103 32.3849L23.25 30.832ZM24.8906 27.8438L24.9113 25.8439L23.1789 25.8259L22.9141 27.5381L24.8906 27.8438ZM32.4297 27.9219L34.4227 28.0892L34.6028 25.9443L32.4504 25.922L32.4297 27.9219ZM30.6719 32.9023L28.9851 31.8277L28.9829 31.8313L30.6719 32.9023ZM26.3164 36.8477L25.3595 35.0914L25.3544 35.0942L26.3164 36.8477ZM12.6445 36.6914L11.6798 38.4434L12.6445 36.6914ZM7.80078 31.7109L6.03344 32.6472L6.03782 32.6554L7.80078 31.7109ZM12.7031 11.0273L11.7384 9.27538L12.7031 11.0273ZM25.9648 10.6172L25.1219 12.4309L25.1324 12.4357L25.9648 10.6172ZM30.418 14.3477L28.766 15.4752L28.7722 15.484L30.418 14.3477ZM32.4297 20.2266V22.2266H34.6209L34.4214 20.0445L32.4297 20.2266ZM26.8832 20.0541C26.7289 18.2714 26.0403 16.6975 24.7222 15.5151L22.0512 18.4927C22.504 18.8988 22.818 19.4734 22.8981 20.399L26.8832 20.0541ZM24.7332 15.525C23.4044 14.3152 21.7004 13.8125 19.8516 13.8125V17.8125C20.9715 17.8125 21.6243 18.104 22.0403 18.4828L24.7332 15.525ZM19.8516 13.8125C18.2185 13.8125 16.7012 14.2222 15.3952 15.1235L17.6673 18.4156C18.2102 18.0409 18.9065 17.8125 19.8516 17.8125V13.8125ZM15.3843 15.1311C14.1014 16.0291 13.1839 17.2934 12.5831 18.8036L16.2997 20.2823C16.6624 19.3706 17.1382 18.786 17.6782 18.408L15.3843 15.1311ZM12.5858 18.7967C11.9847 20.2915 11.7188 21.9972 11.7188 23.8594H15.7188C15.7188 22.3622 15.9346 21.1903 16.297 20.2892L12.5858 18.7967ZM11.7188 23.8594C11.7188 26.7124 12.2838 29.2189 13.7172 31.0771L16.8843 28.6339C16.2084 27.7577 15.7188 26.2668 15.7188 23.8594H11.7188ZM13.7245 31.0865C15.2196 33.0009 17.3397 33.9062 19.8125 33.9062V29.9062C18.4051 29.9062 17.5174 29.4444 16.8771 28.6245L13.7245 31.0865ZM19.8125 33.9062C21.5659 33.9062 23.1889 33.4537 24.5077 32.3871L21.9923 29.277C21.5402 29.6426 20.8716 29.9062 19.8125 29.9062V33.9062ZM24.5103 32.3849C25.8353 31.3096 26.6046 29.8472 26.8671 28.1494L22.9141 27.5381C22.786 28.3663 22.4616 28.8961 21.9897 29.2791L24.5103 32.3849ZM24.8699 29.8436L32.409 29.9218L32.4504 25.922L24.9113 25.8439L24.8699 29.8436ZM30.4367 27.7545C30.3237 29.1008 29.8606 30.4535 28.9851 31.8277L32.3586 33.977C33.5404 32.122 34.2493 30.1544 34.4227 28.0892L30.4367 27.7545ZM28.9829 31.8313C28.1723 33.1094 26.9898 34.2032 25.3596 35.0914L27.2733 38.6039C29.4191 37.4348 31.1402 35.8984 32.3609 33.9734L28.9829 31.8313ZM25.3544 35.0942C23.8278 35.9317 21.9519 36.3906 19.6562 36.3906V40.3906C22.4908 40.3906 25.055 39.8209 27.2784 38.6011L25.3544 35.0942ZM19.6562 36.3906C17.3371 36.3906 15.3384 35.8916 13.6092 34.9394L11.6798 38.4434C14.0653 39.7569 16.7411 40.3906 19.6562 40.3906V36.3906ZM13.6092 34.9394C11.91 34.0038 10.564 32.6336 9.56374 30.7665L6.03782 32.6554C7.38133 35.1633 9.26444 37.1134 11.6798 38.4434L13.6092 34.9394ZM9.5681 30.7747C8.5934 28.9348 8.0625 26.6541 8.0625 23.8594H4.0625C4.0625 27.1584 4.69046 30.1121 6.03346 32.6472L9.5681 30.7747ZM8.0625 23.8594C8.0625 21.0712 8.60381 18.7966 9.59843 16.9604L6.08126 15.0552C4.70609 17.594 4.0625 20.5538 4.0625 23.8594H8.0625ZM9.59843 16.9604C10.6121 15.089 11.9666 13.7161 13.6678 12.7793L11.7384 9.27538C9.3251 10.6042 7.43737 12.5517 6.08126 15.0552L9.59843 16.9604ZM13.6678 12.7793C15.4014 11.8247 17.3817 11.3281 19.6562 11.3281V7.32812C16.7745 7.32812 14.1194 7.96432 11.7384 9.27538L13.6678 12.7793ZM19.6562 11.3281C21.767 11.3281 23.5751 11.712 25.1219 12.4309L26.8078 8.80352C24.6566 7.80367 22.259 7.32812 19.6562 7.32812V11.3281ZM25.1324 12.4357C26.6587 13.1344 27.8565 14.1426 28.7661 15.4751L32.0699 13.2202C30.7398 11.2715 28.9689 9.79272 26.7973 8.79865L25.1324 12.4357ZM28.7722 15.484C29.6823 16.8021 30.2563 18.4213 30.438 20.4087L34.4214 20.0445C34.1864 17.4745 33.4193 15.1745 32.0638 13.2113L28.7722 15.484ZM32.4297 18.2266H24.8906V22.2266H32.4297V18.2266ZM40.3789 37.0234L39.4076 38.7718L39.4135 38.775L40.3789 37.0234ZM36.5898 33.1953L34.8209 34.1285L34.8253 34.1369L34.8298 34.1452L36.5898 33.1953ZM36.5898 21.7305L34.8267 20.7864L34.824 20.7915L36.5898 21.7305ZM40.3789 17.8828L39.4135 16.1312L39.4076 16.1345L40.3789 17.8828ZM52.0391 17.8828L51.0678 19.6311L52.0391 17.8828ZM55.8086 21.7305L54.0397 22.6637L54.0427 22.6695L55.8086 21.7305ZM55.8086 33.1953L57.5745 34.1343L57.5775 34.1285L55.8086 33.1953ZM48.6797 31.4375L46.9687 30.4019L46.9637 30.4102L46.9587 30.4185L48.6797 31.4375ZM48.6797 23.3906L46.9587 24.4096L46.9667 24.423L46.9748 24.4363L48.6797 23.3906ZM43.7383 23.3906L45.433 24.4527L45.4393 24.4426L43.7383 23.3906ZM43.7383 31.4375L42.0373 32.4894L43.7383 31.4375ZM46.2188 36.3906C44.2539 36.3906 42.6517 35.9925 41.3443 35.2719L39.4135 38.775C41.4134 39.8773 43.7044 40.3906 46.2188 40.3906V36.3906ZM41.3502 35.2751C40.0409 34.5478 39.0527 33.5477 38.3499 32.2454L34.8298 34.1452C35.8978 36.1242 37.4356 37.6762 39.4076 38.7718L41.3502 35.2751ZM38.3588 32.2621C37.6612 30.9397 37.2812 29.3556 37.2812 27.4531H33.2812C33.2812 29.8996 33.7737 32.1436 34.8209 34.1285L38.3588 32.2621ZM37.2812 27.4531C37.2812 25.5502 37.6613 23.9754 38.3557 22.6695L34.824 20.7915C33.7736 22.7668 33.2812 25.0071 33.2812 27.4531H37.2812ZM38.353 22.6745C39.057 21.3596 40.0451 20.3562 41.3502 19.6311L39.4076 16.1345C37.4315 17.2323 35.8935 18.794 34.8267 20.7864L38.353 22.6745ZM41.3443 19.6344C42.6517 18.9138 44.2539 18.5156 46.2188 18.5156V14.5156C43.7044 14.5156 41.4134 15.029 39.4135 16.1313L41.3443 19.6344ZM46.2188 18.5156C48.1841 18.5156 49.7768 18.9139 51.0678 19.6311L53.0103 16.1345C51.0201 15.0288 48.7326 14.5156 46.2188 14.5156V18.5156ZM51.0678 19.6311C52.3704 20.3548 53.3491 21.3548 54.0397 22.6637L57.5775 20.7973C56.5233 18.7989 54.9889 17.2337 53.0103 16.1345L51.0678 19.6311ZM54.0427 22.6695C54.7371 23.9754 55.1172 25.5502 55.1172 27.4531H59.1172C59.1172 25.0071 58.6248 22.7668 57.5745 20.7915L54.0427 22.6695ZM55.1172 27.4531C55.1172 29.3556 54.7373 30.9397 54.0397 32.2621L57.5775 34.1285C58.6247 32.1436 59.1172 29.8996 59.1172 27.4531H55.1172ZM54.0427 32.2563C53.3535 33.5525 52.3746 34.5491 51.0678 35.2751L53.0103 38.7718C54.9848 37.6748 56.5189 36.1193 57.5745 34.1343L54.0427 32.2563ZM51.0678 35.2751C49.7768 35.9923 48.1841 36.3906 46.2188 36.3906V40.3906C48.7326 40.3906 51.0201 39.8775 53.0103 38.7718L51.0678 35.2751ZM46.2578 34.9219C48.0879 34.9219 49.5057 33.968 50.4006 32.4565L46.9587 30.4185C46.6818 30.8862 46.485 30.9219 46.2578 30.9219V34.9219ZM50.3907 32.4731C51.2468 31.0587 51.5781 29.3131 51.5781 27.4141H47.5781C47.5781 28.9004 47.3105 29.8371 46.9687 30.4019L50.3907 32.4731ZM51.5781 27.4141C51.5781 25.5077 51.2488 23.7541 50.3846 22.345L46.9748 24.4363C47.3085 24.9803 47.5781 25.909 47.5781 27.4141H51.5781ZM50.4006 22.3716C49.5057 20.8602 48.0879 19.9062 46.2578 19.9062V23.9062C46.485 23.9062 46.6818 23.9419 46.9587 24.4096L50.4006 22.3716ZM46.2578 19.9062C44.4257 19.9062 42.9745 20.8232 42.0373 22.3387L45.4393 24.4426C45.726 23.9789 45.9545 23.9062 46.2578 23.9062V19.9062ZM42.0436 22.3286C41.1582 23.7415 40.8203 25.5017 40.8203 27.4141H44.8203C44.8203 25.9149 45.0944 24.9929 45.433 24.4527L42.0436 22.3286ZM40.8203 27.4141C40.8203 29.3191 41.1603 31.0713 42.0373 32.4894L45.4393 30.3856C45.0923 29.8246 44.8203 28.8944 44.8203 27.4141H40.8203ZM42.0373 32.4894C42.9745 34.0049 44.4257 34.9219 46.2578 34.9219V30.9219C45.9545 30.9219 45.726 30.8492 45.4393 30.3856L42.0373 32.4894ZM63.7578 37.0625L62.6684 38.7398L62.6784 38.7463L62.6885 38.7527L63.7578 37.0625ZM60.7305 33.3906L58.9083 34.215L58.9122 34.2237L58.9163 34.2324L60.7305 33.3906ZM60.7695 21.3203L62.5782 22.174L62.5808 22.1684L60.7695 21.3203ZM63.8164 17.6875L62.7643 15.9866L63.8164 17.6875ZM73.9141 20.4609L72.0485 21.1817L72.5427 22.4609H73.9141V20.4609ZM74.0312 20.4609V22.4609H76.0312V20.4609H74.0312ZM74.0312 9.71875V7.71875H72.0312V9.71875H74.0312ZM81.4141 9.71875H83.4141V7.71875H81.4141V9.71875ZM81.4141 38V40H83.4141V38H81.4141ZM74.1094 38H72.1094V40H74.1094V38ZM74.1094 34.5234H76.1094V32.5234H74.1094V34.5234ZM73.9141 34.5234V32.5234H72.5687L72.0616 33.7695L73.9141 34.5234ZM71.707 37.2383L70.583 35.584L70.5731 35.5908L71.707 37.2383ZM73.2695 31.2031L71.6161 30.0779L71.6107 30.0858L71.6054 30.0937L73.2695 31.2031ZM73.2695 23.6055L71.6126 24.7256L71.6217 24.7391L71.6311 24.7524L73.2695 23.6055ZM68.1328 23.5859L69.8042 24.6843L68.1328 23.5859ZM68.1328 31.2227L66.4474 32.2994L66.4562 32.3131L66.4651 32.3266L68.1328 31.2227ZM68.0156 36.2734C66.8178 36.2734 65.7717 35.9699 64.8271 35.3723L62.6885 38.7527C64.296 39.7696 66.0884 40.2734 68.0156 40.2734V36.2734ZM64.8472 35.3852C63.9554 34.806 63.1722 33.9013 62.5447 32.5488L58.9163 34.2324C59.7991 36.1351 61.0342 37.6783 62.6684 38.7398L64.8472 35.3852ZM62.5527 32.5663C61.9574 31.2503 61.6172 29.5556 61.6172 27.4141H57.6172C57.6172 29.96 58.0192 32.2497 58.9083 34.215L62.5527 32.5663ZM61.6172 27.4141C61.6172 25.1757 61.9722 23.4578 62.5782 22.174L58.9609 20.4666C58.0304 22.438 57.6172 24.7827 57.6172 27.4141H61.6172ZM62.5808 22.1684C63.2207 20.8018 64.0023 19.9242 64.8685 19.3884L62.7643 15.9866C61.1044 17.0133 59.8548 18.5575 58.9583 20.4722L62.5808 22.1684ZM64.8685 19.3884C65.8156 18.8026 66.825 18.5156 67.9375 18.5156V14.5156C66.0812 14.5156 64.3433 15.0099 62.7643 15.9866L64.8685 19.3884ZM67.9375 18.5156C69.111 18.5156 69.9378 18.7988 70.5465 19.2437L72.9066 16.0141C71.4841 14.9746 69.7849 14.5156 67.9375 14.5156V18.5156ZM70.5465 19.2437C71.2606 19.7655 71.7474 20.4024 72.0485 21.1817L75.7797 19.7401C75.1953 18.2278 74.2238 16.9767 72.9066 16.0141L70.5465 19.2437ZM73.9141 22.4609H74.0312V18.4609H73.9141V22.4609ZM76.0312 20.4609V9.71875H72.0312V20.4609H76.0312ZM74.0312 11.7188H81.4141V7.71875H74.0312V11.7188ZM79.4141 9.71875V38H83.4141V9.71875H79.4141ZM81.4141 36H74.1094V40H81.4141V36ZM76.1094 38V34.5234H72.1094V38H76.1094ZM74.1094 32.5234H73.9141V36.5234H74.1094V32.5234ZM72.0616 33.7695C71.757 34.5179 71.2778 35.1119 70.583 35.584L72.8311 38.8925C74.1675 37.9844 75.1596 36.7686 75.7665 35.2773L72.0616 33.7695ZM70.5731 35.5908C69.9656 36.009 69.1507 36.2734 68.0156 36.2734V40.2734C69.7972 40.2734 71.4433 39.8478 72.841 38.8857L70.5731 35.5908ZM70.6719 34.6094C72.4618 34.6094 73.9458 33.7943 74.9336 32.3125L71.6054 30.0937C71.3433 30.4869 71.0955 30.6094 70.6719 30.6094V34.6094ZM74.923 32.3284C75.8638 30.9459 76.2266 29.2278 76.2266 27.375H72.2266C72.2266 28.7514 71.9513 29.5854 71.6161 30.0779L74.923 32.3284ZM76.2266 27.375C76.2266 25.5359 75.8641 23.8244 74.908 22.4585L71.6311 24.7524C71.951 25.2095 72.2266 26.011 72.2266 27.375H76.2266ZM74.9264 22.4853C73.9332 21.0161 72.4494 20.2188 70.6719 20.2188V24.2188C71.1079 24.2188 71.3559 24.3458 71.6126 24.7256L74.9264 22.4853ZM70.6719 20.2188C68.9071 20.2188 67.4314 21.0114 66.4614 22.4876L69.8042 24.6843C70.0321 24.3375 70.2492 24.2188 70.6719 24.2188V20.2188ZM66.4614 22.4876C65.5682 23.8468 65.2344 25.5467 65.2344 27.375H69.2344C69.2344 25.9742 69.4995 25.148 69.8042 24.6843L66.4614 22.4876ZM65.2344 27.375C65.2344 29.2175 65.5687 30.924 66.4474 32.2994L69.8182 30.1459C69.499 29.6463 69.2344 28.7877 69.2344 27.375H65.2344ZM66.4651 32.3266C67.4359 33.7932 68.8995 34.6094 70.6719 34.6094V30.6094C70.2828 30.6094 70.0536 30.5011 69.8005 30.1187L66.4651 32.3266ZM89.5781 37.082L88.6333 38.8448L88.6391 38.8479L89.5781 37.082ZM85.8086 33.3125L84.0427 34.2515L84.0485 34.2624L85.8086 33.3125ZM85.8086 21.7109L84.0454 20.7669L84.0397 20.7777L85.8086 21.7109ZM89.5586 17.8828L90.5311 19.6305L90.5358 19.6278L89.5586 17.8828ZM100.75 17.8242L99.7812 19.5739L99.7923 19.58L100.75 17.8242ZM104.402 21.5742L102.631 22.5022L102.635 22.5107L102.64 22.5191L104.402 21.5742ZM105.711 29.1328V31.1328H107.711V29.1328H105.711ZM91.8047 29.1328V27.1328H89.8047V29.1328H91.8047ZM92.8008 32.1211L91.3468 33.4943L91.3598 33.5082L91.3732 33.5218L92.8008 32.1211ZM98.9141 31.2422V29.2422H97.549L97.0516 30.5134L98.9141 31.2422ZM105.672 31.2422L107.644 31.5767L108.04 29.2422H105.672V31.2422ZM103.953 35.0508L102.415 33.7722L102.414 33.7741L103.953 35.0508ZM100.438 37.5312L101.169 39.3928L101.176 39.3899L101.183 39.3871L100.438 37.5312ZM98.875 24.9922V26.9922H100.917L100.875 24.9505L98.875 24.9922ZM98.3867 23.3125L96.6757 24.3481L96.6856 24.3644L96.6957 24.3805L98.3867 23.3125ZM93.6016 22.1797L94.5133 23.9598L94.5215 23.9556L94.5296 23.9514L93.6016 22.1797ZM92.3125 23.332L93.9697 24.4517L93.9766 24.4415L93.9833 24.4313L92.3125 23.332ZM91.8047 24.9922L89.8051 24.9505L89.7626 26.9922H91.8047V24.9922ZM95.3984 36.3906C93.4196 36.3906 91.8149 36.0063 90.5171 35.3162L88.6391 38.8479C90.6226 39.9026 92.8981 40.3906 95.3984 40.3906V36.3906ZM90.523 35.3193C89.2444 34.634 88.2698 33.6618 87.5686 32.3626L84.0485 34.2624C85.1183 36.2445 86.6567 37.7853 88.6333 38.8448L90.523 35.3193ZM87.5745 32.3735C86.886 31.0788 86.5 29.4623 86.5 27.4531H82.5C82.5 29.9752 82.9864 32.2649 84.0427 34.2515L87.5745 32.3735ZM86.5 27.4531C86.5 25.5507 86.8799 23.9665 87.5775 22.6442L84.0397 20.7777C82.9925 22.7627 82.5 25.0066 82.5 27.4531H86.5ZM87.5718 22.655C88.279 21.334 89.257 20.3394 90.5311 19.6305L88.5861 16.1352C86.631 17.2231 85.109 18.7805 84.0454 20.7669L87.5718 22.655ZM90.5358 19.6278C91.8204 18.9084 93.3681 18.5156 95.2422 18.5156V14.5156C92.7933 14.5156 90.552 15.0343 88.5814 16.1378L90.5358 19.6278ZM95.2422 18.5156C97.0556 18.5156 98.5476 18.8908 99.7812 19.5739L101.719 16.0745C99.8014 15.0128 97.6215 14.5156 95.2422 14.5156V18.5156ZM99.7923 19.58C101.009 20.2437 101.949 21.2001 102.631 22.5022L106.174 20.6462C105.137 18.6671 103.642 17.1235 101.708 16.0684L99.7923 19.58ZM102.64 22.5191C103.326 23.8004 103.711 25.3955 103.711 27.375H107.711C107.711 24.8753 107.223 22.6032 106.165 20.6294L102.64 22.5191ZM103.711 27.375V29.1328H107.711V27.375H103.711ZM105.711 27.1328H91.8047V31.1328H105.711V27.1328ZM89.8047 29.1328V29.4062H93.8047V29.1328H89.8047ZM89.8047 29.4062C89.8047 30.9443 90.2811 32.366 91.3468 33.4943L94.2548 30.7478C93.9923 30.4699 93.8047 30.0817 93.8047 29.4062H89.8047ZM91.3732 33.5218C92.4997 34.6699 93.9734 35.1562 95.5547 35.1562V31.1562C94.8183 31.1562 94.4561 30.9525 94.2284 30.7204L91.3732 33.5218ZM95.5547 35.1562C96.6467 35.1562 97.7006 34.9251 98.6482 34.3896L96.6799 30.9073C96.4296 31.0488 96.0773 31.1562 95.5547 31.1562V35.1562ZM98.6482 34.3896C99.6176 33.8416 100.362 33.0294 100.777 31.971L97.0516 30.5134C96.997 30.6529 96.9084 30.7782 96.6799 30.9073L98.6482 34.3896ZM98.9141 33.2422H105.672V29.2422H98.9141V33.2422ZM103.7 30.9077C103.508 32.0376 103.076 32.9769 102.415 33.7722L105.491 36.3293C106.627 34.9632 107.341 33.3635 107.644 31.5767L103.7 30.9077ZM102.414 33.7741C101.767 34.5533 100.883 35.1968 99.6919 35.6754L101.183 39.3871C102.909 38.6938 104.368 37.6837 105.493 36.3275L102.414 33.7741ZM99.7062 35.6697C98.5247 36.1339 97.1011 36.3906 95.3984 36.3906V40.3906C97.4979 40.3906 99.4336 40.0744 101.169 39.3928L99.7062 35.6697ZM100.875 24.9505C100.854 23.9875 100.598 23.0681 100.078 22.2445L96.6957 24.3805C96.8006 24.5465 96.8695 24.7469 96.8754 25.0338L100.875 24.9505ZM100.098 22.2769C99.6062 21.4649 98.9235 20.8291 98.0859 20.3894L96.2266 23.931C96.4307 24.0381 96.5682 24.1705 96.6757 24.3481L100.098 22.2769ZM98.0859 20.3894C97.2487 19.9498 96.3382 19.75 95.3984 19.75V23.75C95.7608 23.75 96.0221 23.8236 96.2266 23.931L98.0859 20.3894ZM95.3984 19.75C94.4423 19.75 93.5224 19.9634 92.6735 20.408L94.5296 23.9514C94.7744 23.8231 95.0525 23.75 95.3984 23.75V19.75ZM92.6898 20.3996C91.8525 20.8285 91.1597 21.4455 90.6417 22.2328L93.9833 24.4313C94.1164 24.229 94.283 24.0778 94.5133 23.9598L92.6898 20.3996ZM90.6553 22.2123C90.098 23.0372 89.8255 23.9709 89.8051 24.9505L93.8043 25.0338C93.8099 24.7634 93.876 24.5904 93.9697 24.4517L90.6553 22.2123ZM91.8047 26.9922H98.875V22.9922H91.8047V26.9922ZM122.586 16.7891V14.7891H120.586V16.7891H122.586ZM129.969 16.7891H131.969V14.7891H129.969V16.7891ZM129.969 38V40H131.969V38H129.969ZM122.977 38H120.977V40H122.977V38ZM122.977 33.9766H124.977V31.9766H122.977V33.9766ZM122.742 33.9766V31.9766H121.318L120.852 33.3223L122.742 33.9766ZM120.301 37.1406L119.209 35.465L119.2 35.4707L120.301 37.1406ZM112.371 37.2578L111.327 38.9639L111.336 38.9693L112.371 37.2578ZM109.793 34.4453L108.008 35.3474L108.012 35.3552L109.793 34.4453ZM108.875 16.7891V14.7891H106.875V16.7891H108.875ZM116.258 16.7891H118.258V14.7891H116.258V16.7891ZM117.078 31.3398L115.573 32.6569L115.58 32.6647L115.587 32.6725L117.078 31.3398ZM122.586 28.7422H120.586V28.7541L120.586 28.766L122.586 28.7422ZM122.586 18.7891H129.969V14.7891H122.586V18.7891ZM127.969 16.7891V38H131.969V16.7891H127.969ZM129.969 36H122.977V40H129.969V36ZM124.977 38V33.9766H120.977V38H124.977ZM122.977 31.9766H122.742V35.9766H122.977V31.9766ZM120.852 33.3223C120.523 34.2732 119.981 34.9615 119.209 35.465L121.393 38.8162C122.938 37.8093 124.024 36.3883 124.632 34.6308L120.852 33.3223ZM119.2 35.4707C118.427 35.98 117.463 36.2734 116.219 36.2734V40.2734C118.126 40.2734 119.882 39.8116 121.401 38.8105L119.2 35.4707ZM116.219 36.2734C115.099 36.2734 114.182 36.0153 113.406 35.5463L111.336 38.9693C112.8 39.8545 114.448 40.2734 116.219 40.2734V36.2734ZM113.415 35.5517C112.634 35.0743 112.025 34.4177 111.574 33.5354L108.012 35.3552C108.785 36.8687 109.894 38.0871 111.327 38.9639L113.415 35.5517ZM111.578 33.5432C111.126 32.6494 110.875 31.5855 110.875 30.3047H106.875C106.875 32.1228 107.236 33.8194 108.008 35.3474L111.578 33.5432ZM110.875 30.3047V16.7891H106.875V30.3047H110.875ZM108.875 18.7891H116.258V14.7891H108.875V18.7891ZM114.258 16.7891V28.7812H118.258V16.7891H114.258ZM114.258 28.7812C114.258 30.1973 114.621 31.5688 115.573 32.6569L118.583 30.0228C118.442 29.8609 118.258 29.5267 118.258 28.7812H114.258ZM115.587 32.6725C116.591 33.7957 117.951 34.2578 119.383 34.2578V30.2578C118.835 30.2578 118.659 30.1079 118.569 30.0072L115.587 32.6725ZM119.383 34.2578C120.827 34.2578 122.167 33.7746 123.186 32.6882L120.267 29.9524C120.114 30.1161 119.892 30.2578 119.383 30.2578V34.2578ZM123.186 32.6882C124.215 31.5903 124.603 30.1795 124.586 28.7184L120.586 28.766C120.595 29.4924 120.41 29.8003 120.267 29.9524L123.186 32.6882ZM124.586 28.7422V16.7891H120.586V28.7422H124.586ZM146.297 23.625L144.311 23.8633L144.523 25.625H146.297V23.625ZM145.34 22.0625L144.177 23.69L144.186 23.6964L144.195 23.7028L145.34 22.0625ZM141.512 21.8867L142.483 23.635L142.491 23.6306L142.499 23.6261L141.512 21.8867ZM140.828 22.9609L142.826 23.0625L142.83 22.9832L142.827 22.9038L140.828 22.9609ZM142.977 24.5234L142.611 26.4898L142.612 26.49L142.977 24.5234ZM147.195 25.3047L146.831 27.2713L146.842 27.2732L147.195 25.3047ZM153.641 31.0469L155.641 31.0646L155.641 31.0474L155.641 31.0302L153.641 31.0469ZM152.312 34.9141L150.742 33.676L152.312 34.9141ZM148.719 37.4922L149.451 39.3535L149.457 39.3508L149.464 39.348L148.719 37.4922ZM138.074 37.5117L137.356 39.3784L137.362 39.3804L138.074 37.5117ZM134.48 35.0312L132.915 36.276L132.923 36.2864L132.932 36.2967L134.48 35.0312ZM132.977 31.2422V29.2422H130.769L130.986 31.4394L132.977 31.2422ZM140.32 31.2422L142.291 30.9011L142.004 29.2422H140.32V31.2422ZM141.355 32.8242L142.456 31.1543L141.355 32.8242ZM145.398 33L146.37 34.7483L146.378 34.7439L146.386 34.7394L145.398 33ZM146.141 31.9062L148.14 31.9634L148.141 31.9045L148.14 31.8457L146.141 31.9062ZM145.516 30.8906L144.406 32.5547L144.438 32.5759L144.471 32.5958L145.516 30.8906ZM143.641 30.2656L143.998 28.2979L143.993 28.2969L143.641 30.2656ZM139.93 29.6016L139.57 31.5689L139.577 31.5703L139.93 29.6016ZM135.105 27.4531L133.709 28.8845L133.718 28.8931L135.105 27.4531ZM137.996 17.3359L138.689 19.2121L138.698 19.2086L137.996 17.3359ZM148.348 17.375L147.616 19.2365L147.626 19.2404L147.636 19.2442L148.348 17.375ZM151.766 19.8164L150.17 21.0226L150.175 21.0288L150.18 21.0349L151.766 19.8164ZM153.094 23.625V25.625H155.184L155.092 23.5366L153.094 23.625ZM148.283 23.3867C148.133 22.1439 147.49 21.1237 146.484 20.4222L144.195 23.7028C144.237 23.7319 144.262 23.7546 144.275 23.7682C144.288 23.7814 144.292 23.7888 144.294 23.7907C144.295 23.7925 144.296 23.7956 144.299 23.8031C144.302 23.811 144.307 23.8297 144.311 23.8633L148.283 23.3867ZM146.502 20.435C145.558 19.7605 144.461 19.4766 143.328 19.4766V23.4766C143.783 23.4766 144.028 23.5833 144.177 23.69L146.502 20.435ZM143.328 19.4766C142.359 19.4766 141.388 19.6574 140.525 20.1473L142.499 23.6261C142.599 23.5692 142.839 23.4766 143.328 23.4766V19.4766ZM140.54 20.1384C140.09 20.3886 139.636 20.7523 139.302 21.2768C138.957 21.8185 138.812 22.4217 138.829 23.0181L142.827 22.9038C142.831 23.0445 142.793 23.2407 142.677 23.4243C142.571 23.5908 142.465 23.6452 142.483 23.635L140.54 20.1384ZM138.831 22.8594C138.771 24.0296 139.352 24.9575 140.16 25.5452C140.87 26.0621 141.758 26.3313 142.611 26.4898L143.342 22.5571C143.053 22.5034 142.843 22.445 142.697 22.3921C142.548 22.3379 142.501 22.302 142.512 22.3103C142.529 22.3221 142.625 22.3976 142.711 22.5607C142.803 22.7351 142.833 22.9177 142.826 23.0625L138.831 22.8594ZM142.612 26.49L146.831 27.2713L147.559 23.3381L143.341 22.5569L142.612 26.49ZM146.842 27.2732C148.841 27.6324 150.045 28.2003 150.71 28.7917L153.368 25.8021C151.924 24.5184 149.898 23.7582 147.549 23.3362L146.842 27.2732ZM150.71 28.7917C151.294 29.3108 151.632 29.9988 151.641 31.0635L155.641 31.0302C155.623 28.9699 154.893 27.1579 153.368 25.8021L150.71 28.7917ZM151.641 31.0292C151.631 32.0784 151.327 32.9334 150.742 33.676L153.883 36.1522C155.043 34.6812 155.624 32.958 155.641 31.0646L151.641 31.0292ZM150.742 33.676C150.119 34.4659 149.226 35.1329 147.973 35.6363L149.464 39.348C151.258 38.6275 152.761 37.5758 153.883 36.1522L150.742 33.676ZM147.987 35.6309C146.735 36.1229 145.259 36.3906 143.523 36.3906V40.3906C145.669 40.3906 147.655 40.0594 149.451 39.3535L147.987 35.6309ZM143.523 36.3906C141.607 36.3906 140.043 36.1219 138.787 35.643L137.362 39.3804C139.179 40.0734 141.247 40.3906 143.523 40.3906V36.3906ZM138.792 35.645C137.533 35.1609 136.644 34.5186 136.029 33.7658L132.932 36.2967C134.061 37.6793 135.568 38.6907 137.356 39.3784L138.792 35.645ZM136.046 33.7865C135.439 33.0228 135.074 32.1284 134.967 31.045L130.986 31.4394C131.165 33.2466 131.804 34.8782 132.915 36.276L136.046 33.7865ZM132.977 33.2422H140.32V29.2422H132.977V33.2422ZM138.35 31.5833C138.561 32.8035 139.22 33.8122 140.255 34.4941L142.456 31.1543C142.377 31.1025 142.351 31.0657 142.341 31.0505C142.331 31.0351 142.307 30.9952 142.291 30.9011L138.35 31.5833ZM140.255 34.4941C141.242 35.1444 142.392 35.3906 143.562 35.3906V31.3906C142.936 31.3906 142.615 31.2592 142.456 31.1543L140.255 34.4941ZM143.562 35.3906C144.526 35.3906 145.507 35.2275 146.37 34.7483L144.427 31.2517C144.352 31.2933 144.109 31.3906 143.562 31.3906V35.3906ZM146.386 34.7394C147.323 34.2072 148.102 33.2772 148.14 31.9634L144.141 31.8491C144.145 31.7101 144.192 31.5428 144.29 31.3985C144.378 31.27 144.452 31.2374 144.411 31.2606L146.386 34.7394ZM148.14 31.8457C148.104 30.665 147.47 29.7429 146.561 29.1854L144.471 32.5958C144.455 32.5864 144.36 32.5232 144.271 32.3783C144.177 32.2258 144.145 32.072 144.142 31.9668L148.14 31.8457ZM146.625 29.2265C145.888 28.7349 144.935 28.4682 143.998 28.2979L143.283 32.2334C143.647 32.2997 143.922 32.37 144.121 32.4364C144.22 32.4692 144.291 32.4982 144.341 32.521C144.391 32.5441 144.409 32.5568 144.406 32.5547L146.625 29.2265ZM143.993 28.2969L140.282 27.6328L139.577 31.5703L143.288 32.2344L143.993 28.2969ZM140.29 27.6342C138.377 27.2843 137.191 26.6851 136.493 26.0131L133.718 28.8931C135.182 30.3044 137.212 31.1375 139.57 31.5689L140.29 27.6342ZM136.502 26.0218C135.846 25.3812 135.484 24.562 135.484 23.3906H131.484C131.484 25.5266 132.204 27.4157 133.709 28.8845L136.502 26.0218ZM135.484 23.3906C135.484 22.3275 135.763 21.5289 136.249 20.8893L133.064 18.47C131.987 19.8877 131.484 21.5631 131.484 23.3906H135.484ZM136.249 20.8893C136.759 20.2182 137.531 19.6397 138.689 19.212L137.303 15.4598C135.57 16.0999 134.116 17.0839 133.064 18.47L136.249 20.8893ZM138.698 19.2086C139.879 18.7658 141.356 18.5156 143.172 18.5156V14.5156C141.004 14.5156 139.03 14.8124 137.294 15.4633L138.698 19.2086ZM143.172 18.5156C144.979 18.5156 146.445 18.7762 147.616 19.2365L149.079 15.5135C147.334 14.8279 145.349 14.5156 143.172 14.5156V18.5156ZM147.636 19.2442C148.819 19.6944 149.627 20.3039 150.17 21.0226L153.361 18.6102C152.29 17.1935 150.819 16.1754 149.059 15.5058L147.636 19.2442ZM150.18 21.0349C150.726 21.7465 151.047 22.6118 151.096 23.7134L155.092 23.5366C155.01 21.6955 154.445 20.0217 153.352 18.5979L150.18 21.0349ZM153.094 21.625H146.297V25.625H153.094V21.625Z" fill="white" mask="url(#path-1-outside-1_579_525)"/>
</svg>
