<svg width="156" height="127" viewBox="0 0 156 127" fill="none" xmlns="http://www.w3.org/2000/svg">
<path opacity="0.4" fill-rule="evenodd" clip-rule="evenodd" d="M155.331 19.8111C132.176 30.8173 120.599 43.7494 120.599 58.6078C130.468 59.7084 138.629 63.6064 145.082 70.3018C151.535 76.9973 154.762 84.7474 154.762 93.5524C154.762 102.908 151.63 110.795 145.367 117.216C139.103 123.636 131.227 126.846 121.737 126.846C111.109 126.846 101.904 122.673 94.1223 114.326C86.3407 105.98 82.4499 95.8454 82.4499 83.922C82.4499 48.1518 103.137 20.1781 144.513 0L155.331 19.8111ZM73.6159 19.8111C50.271 30.8173 38.5988 43.7494 38.5988 58.6078C48.658 59.7084 56.9139 63.6064 63.367 70.3018C69.82 76.9973 73.0465 84.7474 73.0465 93.5524C73.0465 102.908 69.8675 110.795 63.5093 117.216C57.1512 123.636 49.2273 126.846 39.7376 126.846C29.109 126.846 19.9516 122.673 12.2649 114.326C4.57816 105.98 0.734863 95.8454 0.734863 83.922C0.734863 48.1518 21.3273 20.1781 62.5129 0L73.6159 19.8111Z" fill="#FACC15"/>
</svg>
