<svg width="63" height="63" viewBox="0 0 63 63" fill="none" xmlns="http://www.w3.org/2000/svg">
<path d="M20.2703 5.19775H42.0998C50.4158 5.19775 57.1725 11.9545 57.1725 20.2705V42.1C57.1725 46.0975 55.5845 49.9314 52.7578 52.758C49.9311 55.5847 46.0973 57.1728 42.0998 57.1728H20.2703C11.9543 57.1728 5.19751 50.416 5.19751 42.1V20.2705C5.19751 16.273 6.78553 12.4391 9.61222 9.61246C12.4389 6.78577 16.2727 5.19775 20.2703 5.19775ZM19.7505 10.3953C17.2693 10.3953 14.8897 11.3809 13.1352 13.1354C11.3807 14.8899 10.395 17.2695 10.395 19.7508V42.6198C10.395 47.7913 14.579 51.9753 19.7505 51.9753H42.6195C45.1007 51.9753 47.4804 50.9896 49.2348 49.2351C50.9893 47.4806 51.975 45.101 51.975 42.6198V19.7508C51.975 14.5792 47.791 10.3953 42.6195 10.3953H19.7505ZM44.8284 14.2934C45.69 14.2934 46.5162 14.6356 47.1254 15.2448C47.7346 15.854 48.0769 16.6803 48.0769 17.5418C48.0769 18.4034 47.7346 19.2296 47.1254 19.8388C46.5162 20.448 45.69 20.7903 44.8284 20.7903C43.9669 20.7903 43.1407 20.448 42.5315 19.8388C41.9222 19.2296 41.58 18.4034 41.58 17.5418C41.58 16.6803 41.9222 15.854 42.5315 15.2448C43.1407 14.6356 43.9669 14.2934 44.8284 14.2934ZM31.185 18.1915C34.6312 18.1915 37.9362 19.5605 40.373 21.9973C42.8098 24.4341 44.1788 27.7391 44.1788 31.1853C44.1788 34.6314 42.8098 37.9364 40.373 40.3732C37.9362 42.81 34.6312 44.179 31.185 44.179C27.7389 44.179 24.4338 42.81 21.997 40.3732C19.5602 37.9364 18.1913 34.6314 18.1913 31.1853C18.1913 27.7391 19.5602 24.4341 21.997 21.9973C24.4338 19.5605 27.7389 18.1915 31.185 18.1915ZM31.185 23.389C29.1173 23.389 27.1343 24.2104 25.6722 25.6725C24.2101 27.1346 23.3888 29.1176 23.3888 31.1853C23.3888 33.2529 24.2101 35.236 25.6722 36.698C27.1343 38.1601 29.1173 38.9815 31.185 38.9815C33.2527 38.9815 35.2357 38.1601 36.6978 36.698C38.1599 35.236 38.9813 33.2529 38.9813 31.1853C38.9813 29.1176 38.1599 27.1346 36.6978 25.6725C35.2357 24.2104 33.2527 23.389 31.185 23.389Z" fill="white"/>
</svg>
