<svg width="53" height="51" viewBox="0 0 53 51" fill="none" xmlns="http://www.w3.org/2000/svg">
<path fill-rule="evenodd" clip-rule="evenodd" d="M26.082 0C11.6717 0 0 11.6717 0 26.082C0 37.6233 7.46597 47.3714 17.8336 50.8273C19.1377 51.0555 19.6267 50.2731 19.6267 49.5884C19.6267 48.969 19.5941 46.915 19.5941 44.7306C13.041 45.9369 11.3457 43.1331 10.824 41.666C10.5306 40.9161 9.25911 38.6014 8.15063 37.9819C7.23776 37.4929 5.93366 36.2866 8.11802 36.254C10.172 36.2214 11.6391 38.1449 12.1281 38.9274C14.4755 42.8723 18.2248 41.7638 19.7245 41.0791C19.9527 39.3838 20.6374 38.2427 21.3872 37.5907C15.584 36.9386 9.51993 34.6891 9.51993 24.7127C9.51993 21.8763 10.5306 19.5289 12.1933 17.7032C11.9325 17.0511 11.0196 14.3777 12.4542 10.7914C12.4542 10.7914 14.6385 10.1068 19.6267 13.4648C21.7133 12.878 23.9302 12.5846 26.1472 12.5846C28.3642 12.5846 30.5811 12.878 32.6677 13.4648C37.6559 10.0742 39.8403 10.7914 39.8403 10.7914C41.2748 14.3777 40.3619 17.0511 40.1011 17.7032C41.7638 19.5289 42.7745 21.8437 42.7745 24.7127C42.7745 34.7217 36.6778 36.9386 30.8746 37.5907C31.82 38.4057 32.6351 39.9707 32.6351 42.4158C32.6351 45.9043 32.6025 48.7081 32.6025 49.5884C32.6025 50.2731 33.0915 51.0881 34.3956 50.8273C44.698 47.3714 52.164 37.5907 52.164 26.082C52.164 11.6717 40.4923 0 26.082 0Z" fill="white"/>
</svg>
