<svg width="154" height="150" viewBox="0 0 154 150" fill="none" xmlns="http://www.w3.org/2000/svg">
<g opacity="0.2" filter="url(#filter0_i_216_50)">
<path fill-rule="evenodd" clip-rule="evenodd" d="M76.6667 0C34.3083 0 0 34.3083 0 76.6667C0 110.592 21.9458 139.246 52.4208 149.404C56.2542 150.075 57.6917 147.775 57.6917 145.762C57.6917 143.942 57.5958 137.904 57.5958 131.483C38.3333 135.029 33.35 126.787 31.8167 122.475C30.9542 120.271 27.2167 113.467 23.9583 111.646C21.275 110.208 17.4417 106.662 23.8625 106.567C29.9 106.471 34.2125 112.125 35.65 114.425C42.55 126.021 53.5708 122.762 57.9792 120.75C58.65 115.767 60.6625 112.412 62.8667 110.496C45.8083 108.579 27.9833 101.967 27.9833 72.6417C27.9833 64.3042 30.9542 57.4042 35.8417 52.0375C35.075 50.1208 32.3917 42.2625 36.6083 31.7208C36.6083 31.7208 43.0292 29.7083 57.6917 39.5792C63.825 37.8542 70.3417 36.9917 76.8583 36.9917C83.375 36.9917 89.8917 37.8542 96.025 39.5792C110.688 29.6125 117.108 31.7208 117.108 31.7208C121.325 42.2625 118.642 50.1208 117.875 52.0375C122.762 57.4042 125.733 64.2083 125.733 72.6417C125.733 102.062 107.813 108.579 90.7542 110.496C93.5333 112.892 95.9292 117.492 95.9292 124.679C95.9292 134.933 95.8333 143.175 95.8333 145.762C95.8333 147.775 97.2708 150.171 101.104 149.404C131.388 139.246 153.333 110.496 153.333 76.6667C153.333 34.3083 119.025 0 76.6667 0Z" fill="white"/>
</g>
<defs>
<filter id="filter0_i_216_50" x="-10" y="0" width="163.333" height="159.551" filterUnits="userSpaceOnUse" color-interpolation-filters="sRGB">
<feFlood flood-opacity="0" result="BackgroundImageFix"/>
<feBlend mode="normal" in="SourceGraphic" in2="BackgroundImageFix" result="shape"/>
<feColorMatrix in="SourceAlpha" type="matrix" values="0 0 0 0 0 0 0 0 0 0 0 0 0 0 0 0 0 0 127 0" result="hardAlpha"/>
<feOffset dx="-10" dy="10"/>
<feGaussianBlur stdDeviation="25"/>
<feComposite in2="hardAlpha" operator="arithmetic" k2="-1" k3="1"/>
<feColorMatrix type="matrix" values="0 0 0 0 0 0 0 0 0 0 0 0 0 0 0 0 0 0 1 0"/>
<feBlend mode="normal" in2="shape" result="effect1_innerShadow_216_50"/>
</filter>
</defs>
</svg>
